<svg xmlns="http://www.w3.org/2000/svg" width="6666.667" height="6666.667"><path d="M3302.632 627.228C2440.194 1381.507 1115.605 1699.972 882.94 1751.426c-20.132 4.453-33.583 23.48-31.051 43.947 446.536 3608.684 2309.622 4221.856 2470.355 4268.256 7.253 2.093 14.92 2.093 22.16 0 160.733-46.4 2023.822-659.572 2470.354-4268.243 2.533-20.467-10.92-39.507-31.053-43.96-232.693-51.467-1557.263-369.919-2419.687-1124.197-17.573-15.387-43.813-15.387-61.387 0" fill="#13a821"/><path d="M3333.325 739.428C2435.554 1546.013 974.247 1839.319 974.247 1839.319c434.91 3611.311 2359.078 4087.936 2359.078 4087.936s1924.169-476.625 2359.074-4087.936c0 0-1461.303-293.306-2359.074-1099.891" fill="#fff"/><path d="M3333.325 837.641c-863.785 776.051-2269.756 1058.251-2269.756 1058.251 418.44 3474.578 2269.756 3933.15 2269.756 3933.15s1851.315-458.572 2269.754-3933.15c0 0-1405.97-282.199-2269.754-1058.251" fill="#13a821"/><path d="M3672.737 3121.969h-679.145V2628.57c0-187.546 152.026-339.572 339.572-339.572h0c187.546 0 339.572 152.026 339.572 339.572zm-277.946 511.159v212.226c0 33.947-27.52 61.467-61.467 61.467s-61.467-27.52-61.467-61.467v-212.226c-35.373-21.013-59.107-59.587-59.107-103.72 0-66.587 53.987-120.573 120.573-120.573s120.573 53.987 120.573 120.573c0 44.133-23.733 82.706-59.107 103.72zm462.519-511.159h-23.24V2633.57c0-276.639-224.266-500.905-500.905-500.905h0c-276.639 0-500.905 224.266-500.905 500.905v488.399h-22.92c-89.466 0-162 72.52-162 161.986v746.785c0 89.466 72.533 161.986 162 161.986H3857.31c89.466 0 162-72.52 162-161.986v-746.785c0-89.466-72.533-161.986-162-161.986" fill="#fff"/></svg>